# xmcd
#
# Track frame offsets:
#	150
#	20855
#	38802
#	59610
#	80182
#	96982
#	122398
#	142224
#	162308
#	180333
#	195478
#	214168
#	230549
#	248737
#	268480
#
# Disc length: 3805
#
# Revision: 1
# Processed by: cddbd v1.5.1PL2 Copyright (c) Steve Scherf et al.
# Submitted via: kTunes Lite (development) 1.0patch41.32
#
DISCID=e10edb0f
DTITLE=Male Country Hits of 2005 - SC−8944
DYEAR=2005
DGENRE=Karaoke
TTITLE0=Bobby Pinson - Don't Ask Me How I Know
TTITLE1=Darryl Worley - Awful Beautiful Day
TTITLE2=Big and Rich - Holy Water
TTITLE3=Brad Paisley - Alcohol
TTITLE4=Toby Keith - Stays In Mexico
TTITLE5=Kenny Chesney - Anything But Mine
TTITLE6=Keith Urban - Making Memories Of Us
TTITLE7=Brooks and Dunn - It's getting better all the time
TTITLE8=Rascal Flatts - Bless the broken road
TTITLE9=Keith Anderson - Pickin' Wildflowers
TTITLE10=George Strait - I Hate Everything
TTITLE11=Blake Shelton - Some Beach
TTITLE12=Toby Keith - As Good As I Once Was
TTITLE13=Joshua Gracin - Stay With Me (Brass Bed)
TTITLE14=Gary Allan - Nothing On But The Radio
EXTD=
EXTT0=
EXTT1=
EXTT2=
EXTT3=
EXTT4=
EXTT5=
EXTT6=
EXTT7=
EXTT8=
EXTT9=
EXTT10=
EXTT11=
EXTT12=
EXTT13=
EXTT14=
PLAYORDER=
